<svg xmlns="http://www.w3.org/2000/svg">
  <symbol id="chart" viewBox="0 0 24 24"><path d="M3 3v18h18M7 16l4-5 4 3 5-7"/></symbol>
  <symbol id="upload" viewBox="0 0 24 24"><path d="M12 16V4m0 0L7 9m5-5 5 5M5 14a4 4 0 0 0 0 8h14a4 4 0 0 0 0-8"/></symbol>
  <symbol id="user" viewBox="0 0 24 24"><circle cx="12" cy="8" r="4"/><path d="M4 21a8 8 0 0 1 16 0"/></symbol>
  <symbol id="calendar" viewBox="0 0 24 24"><rect x="3" y="5" width="18" height="16" rx="2"/><path d="M7 3v4m10-4v4M3 10h18M8 14h.01M12 14h.01M16 14h.01M8 18h.01M12 18h.01"/></symbol>
  <symbol id="file" viewBox="0 0 24 24"><path d="M6 2h8l4 4v16H6zM14 2v5h5M9 12h6M9 16h6"/></symbol>
  <symbol id="users" viewBox="0 0 24 24"><path d="M16 21v-2a4 4 0 0 0-4-4H6a4 4 0 0 0-4 4v2M9 11a4 4 0 1 0 0-8 4 4 0 0 0 0 8M22 21v-2a4 4 0 0 0-3-3.87M16 3.13a4 4 0 0 1 0 7.75"/></symbol>
  <symbol id="settings" viewBox="0 0 24 24"><circle cx="12" cy="12" r="3"/><path d="M19.4 15a1.7 1.7 0 0 0 .34 1.88l.06.06-2.83 2.83-.06-.06a1.7 1.7 0 0 0-1.88-.34 1.7 1.7 0 0 0-1.03 1.56V21h-4v-.09A1.7 1.7 0 0 0 9 19.36a1.7 1.7 0 0 0-1.88.34l-.06.06-2.83-2.83.06-.06A1.7 1.7 0 0 0 4.6 15a1.7 1.7 0 0 0-1.54-1H3v-4h.09A1.7 1.7 0 0 0 4.64 9a1.7 1.7 0 0 0-.34-1.88l-.06-.06 2.83-2.83.06.06A1.7 1.7 0 0 0 9 4.6a1.7 1.7 0 0 0 1-1.54V3h4v.09A1.7 1.7 0 0 0 15 4.64a1.7 1.7 0 0 0 1.88-.34l.06-.06 2.83 2.83-.06.06A1.7 1.7 0 0 0 19.4 9a1.7 1.7 0 0 0 1.54 1H21v4h-.09A1.7 1.7 0 0 0 19.4 15z"/></symbol>
  <symbol id="logout" viewBox="0 0 24 24"><path d="M10 17l5-5-5-5m5 5H3M14 4h5a2 2 0 0 1 2 2v12a2 2 0 0 1-2 2h-5"/></symbol>
  <symbol id="menu" viewBox="0 0 24 24"><path d="M4 6h16M4 12h16M4 18h16"/></symbol>
  <symbol id="clock" viewBox="0 0 24 24"><circle cx="12" cy="12" r="9"/><path d="M12 7v5l3 2"/></symbol>
  <symbol id="sparkles" viewBox="0 0 24 24"><path d="m12 3 1.4 4.1L17.5 8.5l-4.1 1.4L12 14l-1.4-4.1-4.1-1.4 4.1-1.4L12 3zM19 14l.8 2.2L22 17l-2.2.8L19 20l-.8-2.2L16 17l2.2-.8L19 14zM6 14l.8 2.2L9 17l-2.2.8L6 20l-.8-2.2L3 17l2.2-.8L6 14z"/></symbol>
  <symbol id="chevron" viewBox="0 0 24 24"><path d="m9 18 6-6-6-6"/></symbol>
</svg>
